<?xml version="1.0" encoding="utf-8"?>
<!-- Generator: Adobe Illustrator 24.1.3, SVG Export Plug-In . SVG Version: 6.00 Build 0)  -->
<svg version="1.1" id="Capa_1" xmlns="http://www.w3.org/2000/svg" xmlns:xlink="http://www.w3.org/1999/xlink" x="0px" y="0px"
	 viewBox="0 0 512 512" style="enable-background:new 0 0 512 512;" xml:space="preserve">
<style type="text/css">
	.st0{fill:#FFFFFF;}
</style>
<g>
	<g>
		<path class="st0" d="M256,26c31.1,0,61.2,6.1,89.5,18.1c27.4,11.6,52,28.2,73.1,49.3c21.1,21.1,37.7,45.7,49.3,73.1
			c12,28.4,18.1,58.5,18.1,89.5s-6.1,61.2-18.1,89.5c-11.6,27.4-28.2,52-49.3,73.1c-21.1,21.1-45.7,37.7-73.1,49.3
			C317.2,480,287.1,486,256,486s-61.2-6.1-89.5-18.1c-27.4-11.6-52-28.2-73.1-49.3c-21.1-21.1-37.7-45.7-49.3-73.1
			C32,317.2,26,287.1,26,256S32,194.8,44,166.5c11.6-27.4,28.2-52,49.3-73.1c21.1-21.1,45.7-37.7,73.1-49.3
			C194.8,32,224.9,26,256,26 M256,9C119.6,9,9,119.6,9,256s110.6,247,247,247s247-110.6,247-247S392.4,9,256,9L256,9z"/>
	</g>
</g>
<g>
	<path class="st0" d="M-261.3,341.5c-6.3,0-11.5-5.2-11.5-11.5v-80.8h-17.4c-6.3,0-11.5-5.2-11.5-11.5s5.2-11.5,11.5-11.5h17.4
		v-21.5c0-18.8,15.3-34.2,34.2-34.2h21.3c6.3,0,11.5,5.2,11.5,11.5s-5.2,11.5-11.5,11.5h-21.3c-6.2,0-11.2,5-11.2,11.2v21.5h28.3
		c6.3,0,11.5,5.2,11.5,11.5s-5.2,11.5-11.5,11.5h-28.3V330C-249.8,336.3-255,341.5-261.3,341.5z"/>
	<path class="st0" d="M-217.3,173c5,0,9,4,9,9c0,5-4,9-9,9h-21.3c-7.5,0-13.7,6.1-13.7,13.7v24h30.8c5,0,9,4,9,9s-4,9-9,9h-30.8V330
		c0,5-4,9-9,9c-5,0-9-4-9-9v-83.3h-19.9c-5,0-9-4-9-9c0-5,4-9,9-9h19.9v-24c0-17.5,14.2-31.7,31.7-31.7H-217.3 M-217.3,168h-21.3
		c-20.2,0-36.7,16.4-36.7,36.7v19h-14.9c-7.7,0-14,6.3-14,14s6.3,14,14,14h14.9V330c0,7.7,6.3,14,14,14s14-6.3,14-14v-78.3h25.8
		c7.7,0,14-6.3,14-14s-6.3-14-14-14h-25.8v-19c0-4.8,3.9-8.7,8.7-8.7h21.3c7.7,0,14-6.3,14-14S-209.6,168-217.3,168L-217.3,168z"/>
</g>
<g>
	<g>
		<path class="st0" d="M-398,365.1h-18V175c0-10,3.9-18.5,11.2-24.7c21.2-18,65.6-11.5,70.6-10.6l-2.9,17.8c0,0,0,0,0,0l0,0
			c-11.3-1.8-43.5-4.2-56.1,6.6c-3.3,2.8-4.8,6.3-4.8,11V365.1z"/>
	</g>
	<g>
		<rect x="-464.1" y="223" class="st0" width="129.2" height="18"/>
	</g>
</g>
<g>
	<g>
		<path class="st0" d="M307.6,368.3H204.4c-33,0-59.9-26.9-59.9-59.9V203.6c0-33,26.9-59.9,59.9-59.9h103.1
			c33,0,59.9,26.9,59.9,59.9v104.8C367.4,341.4,340.6,368.3,307.6,368.3z M204.4,158.7c-24.8,0-44.9,20.1-44.9,44.9v104.8
			c0,24.7,20.1,44.9,44.9,44.9h103.1c24.8,0,44.9-20.1,44.9-44.9V203.6c0-24.8-20.1-44.9-44.9-44.9H204.4z"/>
	</g>
	<g>
		<path class="st0" d="M256,315.9c-32.8,0-59.5-26.9-59.5-59.9s26.7-59.9,59.5-59.9s59.5,26.9,59.5,59.9S288.8,315.9,256,315.9z
			 M256,211.1c-24.5,0-44.5,20.1-44.5,44.9c0,24.7,19.9,44.9,44.5,44.9c24.5,0,44.5-20.1,44.5-44.9
			C300.5,231.2,280.5,211.1,256,211.1z"/>
	</g>
	<g>
		<path class="st0" d="M323.4,206.6c-10,0-18.2-8.2-18.2-18.3c0-10.1,8.2-18.3,18.2-18.3c10,0,18.2,8.2,18.2,18.3
			C341.7,198.4,333.5,206.6,323.4,206.6z M323.4,184.9c-1.8,0-3.2,1.5-3.2,3.3c0,1.8,1.4,3.3,3.2,3.3c1.8,0,3.2-1.5,3.2-3.3
			C326.7,186.4,325.2,184.9,323.4,184.9z"/>
	</g>
</g>
</svg>
