 <svg xmlns="http://www.w3.org/2000/svg" viewBox="0 0 1440 320">
      <path fill="#ffedf3" fill-opacity="1"
        d="M0,128L15,138.7C30,149,60,171,90,181.3C120,192,150,192,180,165.3C210,139,240,85,270,80C300,75,330,117,360,165.3C390,213,420,267,450,261.3C480,256,510,192,540,186.7C570,181,600,235,630,261.3C660,288,690,288,720,266.7C750,245,780,203,810,165.3C840,128,870,96,900,96C930,96,960,128,990,170.7C1020,213,1050,267,1080,277.3C1110,288,1140,256,1170,202.7C1200,149,1230,75,1260,74.7C1290,75,1320,149,1350,192C1380,235,1410,245,1425,250.7L1440,256L1440,0L1425,0C1410,0,1380,0,1350,0C1320,0,1290,0,1260,0C1230,0,1200,0,1170,0C1140,0,1110,0,1080,0C1050,0,1020,0,990,0C960,0,930,0,900,0C870,0,840,0,810,0C780,0,750,0,720,0C690,0,660,0,630,0C600,0,570,0,540,0C510,0,480,0,450,0C420,0,390,0,360,0C330,0,300,0,270,0C240,0,210,0,180,0C150,0,120,0,90,0C60,0,30,0,15,0L0,0Z">
      </path>
    </svg>