<?xml version="1.0" encoding="utf-8"?>
<!-- Generator: Adobe Illustrator 24.0.0, SVG Export Plug-In . SVG Version: 6.00 Build 0)  -->
<svg version="1.1" xmlns="http://www.w3.org/2000/svg" xmlns:xlink="http://www.w3.org/1999/xlink" x="0px" y="0px"
	 viewBox="0 0 63 38" style="enable-background:new 0 0 63 38;" xml:space="preserve">
<g id="Layer_1" class="st0">
	<g class="st1">
		<path d="M64.56,8.5c-1.72-4.15-8.07-5.73-18.37-4.59c-3.7,0.41-7.74,1.16-12,2.21C29.6,2.75,24.18,0.98,18.45,0.98
			c-13.15,0-24.34,9.65-26.31,22.56c-3.76,2.27-7.15,4.6-10.05,6.92c-8.09,6.47-11.46,12.08-9.74,16.23
			c1.25,3.02,4.92,4.68,10.91,4.92c0.49,0.02,0.99,0.03,1.51,0.03c4.93,0,11.08-0.88,17.94-2.57c4.47,3.28,9.95,5.15,15.75,5.15
			c13.3,0,24.35-9.81,26.31-22.57c6.72-4.06,12.11-8.21,15.61-12.02C64.4,15.25,65.81,11.51,64.56,8.5z M18.45,3.76
			c4.33,0,8.47,1.14,12.13,3.31c-5.78,1.61-11.89,3.72-18.04,6.27C6.4,15.88,0.59,18.7-4.64,21.66C-1.98,11.27,7.48,3.76,18.45,3.76
			z M18.45,51.43c-5.35,0-10.4-1.78-14.47-4.88c-0.07-0.07-0.15-0.13-0.23-0.18c-1.66-1.3-3.16-2.83-4.43-4.55
			c-0.04-0.05-0.07-0.11-0.11-0.15c-1.02-1.39-1.89-2.91-2.6-4.54c0.4-0.46,1.77-1.73,6.28-4.22c4-2.21,9.28-4.69,14.87-7.01
			c5.59-2.31,11.08-4.29,15.47-5.56c4.96-1.44,6.82-1.5,7.42-1.46c0.65,1.66,1.11,3.38,1.38,5.15c0,0.02,0,0.03,0.01,0.05
			c0.17,1.16,0.26,2.33,0.26,3.52C42.29,40.74,31.6,51.43,18.45,51.43z M58.33,17.74c-3.02,3.29-7.58,6.87-13.26,10.45
			c0-0.2,0.01-0.4,0.01-0.6c0-1.03-0.06-2.06-0.18-3.07c7.6-5.01,10.85-9,9.66-11.88c-0.73-1.77-2.83-2.63-6.42-2.64c0,0,0,0,0,0
			c-0.77,0-1.39,0.62-1.39,1.39c0,0.77,0.62,1.39,1.39,1.4c2.74,0.01,3.71,0.58,3.85,0.92c0.13,0.31-0.09,1.29-1.72,3.02
			c-1.33,1.41-3.34,3.05-5.88,4.79c-0.33-1.39-0.76-2.75-1.31-4.09c0-0.01-0.01-0.02-0.01-0.03c0-0.01-0.01-0.02-0.01-0.03
			c-0.02-0.05-0.04-0.1-0.06-0.15c-0.13-0.31-0.37-0.55-0.65-0.7c-1.24-0.79-3.83-0.52-8.63,0.78c-4.69,1.28-10.73,3.41-17.01,6.01
			S4.62,28.7,0.4,31.11c-5.49,3.14-7.26,4.95-6.55,6.67c0.01,0.02,0.02,0.04,0.03,0.06c0.01,0.04,0.02,0.07,0.04,0.11
			c0.54,1.29,1.18,2.51,1.9,3.67c-8.15,1.52-10.67,0.41-10.9-0.14c-0.12-0.28,0.06-1.18,1.48-2.76c1.43-1.59,3.79-3.5,6.81-5.52
			c0.64-0.43,0.81-1.29,0.39-1.93c-0.43-0.64-1.29-0.81-1.93-0.39c-7.46,4.98-10.51,8.79-9.32,11.66c0.73,1.76,2.93,2.64,6.56,2.64
			c2.31,0,5.2-0.36,8.66-1.07c0.76,0.97,1.59,1.87,2.47,2.72c-6.5,1.48-12.23,2.17-16.68,1.99c-4.67-0.19-7.67-1.32-8.45-3.2
			c-1.14-2.76,2.19-7.62,8.91-12.99c2.94-2.35,6.4-4.72,10.26-7.02c0.04-0.02,0.08-0.04,0.11-0.07c5.74-3.43,12.35-6.72,19.41-9.64
			C39.27,5.28,59.7,4.03,61.99,9.56C62.76,11.43,61.46,14.34,58.33,17.74z"/>
		<path d="M41.97,10.58c-0.96,0.16-1.98,0.35-3.03,0.57c-0.75,0.16-1.23,0.9-1.08,1.65c0.14,0.66,0.72,1.11,1.36,1.11
			c0.09,0,0.19-0.01,0.29-0.03c1.01-0.21,1.99-0.4,2.91-0.55c0.76-0.12,1.27-0.84,1.15-1.6C43.44,10.97,42.73,10.45,41.97,10.58z"/>
		<path d="M32.92,12.63c-5.61,1.55-11.86,3.73-18.06,6.3c-6.49,2.69-12.67,5.69-17.88,8.69c-0.67,0.38-0.9,1.23-0.51,1.9
			c0.26,0.45,0.73,0.7,1.21,0.7c0.24,0,0.47-0.06,0.69-0.19c5.11-2.94,11.18-5.89,17.56-8.53c6.1-2.53,12.23-4.67,17.74-6.19
			c0.74-0.2,1.17-0.97,0.97-1.71C34.43,12.86,33.66,12.42,32.92,12.63z"/>
		<path d="M37.55,30.69c-0.75-0.18-1.5,0.29-1.67,1.03c-0.93,3.93-3.2,7.48-6.41,9.98c-0.61,0.47-0.71,1.35-0.24,1.95
			c0.27,0.35,0.68,0.53,1.1,0.53c0.3,0,0.6-0.1,0.86-0.3c3.7-2.89,6.33-6.99,7.4-11.53C38.76,31.62,38.3,30.87,37.55,30.69z"/>
		<path d="M25.35,44.12c-0.89,0.37-1.82,0.67-2.76,0.9c-0.75,0.18-1.21,0.93-1.03,1.67c0.15,0.64,0.72,1.07,1.35,1.07
			c0.11,0,0.21-0.01,0.32-0.04c1.09-0.26,2.16-0.61,3.2-1.04c0.71-0.3,1.04-1.11,0.75-1.82C26.87,44.16,26.06,43.82,25.35,44.12z"/>
	</g>
</g>
<g id="Layer_2">
	<g>
		<path class="st2" d="M42.19,4.73C39.16,2.39,36.35,1,32.22,1c-9.31,0-16.97,7.07-17.9,16.13c-0.06,0.61-0.1,1.24-0.1,1.87"/>
		<path class="st2" d="M15.43,25.51C18.04,32.23,24.57,37,32.22,37c9.94,0,18-8.06,18-18c0-2.2-0.39-4.3-1.11-6.25"/>
		<g>
			<path class="st2" d="M50.22,21.05C58.49,15.5,63.21,9.79,61.67,6.27C59.39,1.01,44.07,2.6,27.45,9.83S-0.78,27.17,1.51,32.43
				c1.61,3.71,9.72,4.01,20.18,1.33"/>
		</g>
		<g>
			<path class="st2" d="M14.37,21.35c-4.21,3.19-6.44,6.17-5.63,8.04c0.81,1.86,4.46,2.26,9.59,1.39"/>
			<path class="st2" d="M42.45,8.7c-4.06,0.87-8.84,2.43-13.8,4.58c-4.34,1.89-8.24,3.98-11.43,6.07"/>
			<path class="st2" d="M48.93,7.88c-1.26,0.01-2.72,0.14-4.32,0.41"/>
			<path class="st2" d="M50.22,16.26c3-2.61,4.48-4.97,3.79-6.55c-0.29-0.67-0.96-1.16-1.94-1.46"/>
		</g>
		<path class="st2" d="M15.5,25.5c0,0,17.95-12.2,33.43-12.98"/>
		<path class="st2" d="M37.72,31.57c-1.1,0.49-2.35,0.82-3.77,0.93"/>
		<path class="st2" d="M45.03,22.12c0,0-1.07,5.01-5.02,8.09"/>
	</g>
</g>
</svg>
